<?xml version="1.0" encoding="UTF-8" standalone="no"?>
<!-- Created with Inkscape (http://www.inkscape.org/) -->

<svg
   xmlns:i="http://ns.adobe.com/AdobeIllustrator/10.0/"
   xmlns:dc="http://purl.org/dc/elements/1.1/"
   xmlns:cc="http://creativecommons.org/ns#"
   xmlns:rdf="http://www.w3.org/1999/02/22-rdf-syntax-ns#"
   xmlns:svg="http://www.w3.org/2000/svg"
   xmlns="http://www.w3.org/2000/svg"
   xmlns:xlink="http://www.w3.org/1999/xlink"
   xmlns:sodipodi="http://sodipodi.sourceforge.net/DTD/sodipodi-0.dtd"
   xmlns:inkscape="http://www.inkscape.org/namespaces/inkscape"
   width="744.09448819"
   height="1052.3622047"
   id="svg2"
   version="1.1"
   inkscape:version="0.48.1 r9760"
   sodipodi:docname="pisido.svg">
  <defs
     id="defs4">
    <linearGradient
       inkscape:collect="always"
       id="linearGradient4439">
      <stop
         style="stop-color:#418285;stop-opacity:1"
         offset="0"
         id="stop4441" />
      <stop
         style="stop-color:#7dbcc0;stop-opacity:1"
         offset="1"
         id="stop4443" />
    </linearGradient>
    <linearGradient
       inkscape:collect="always"
       id="linearGradient4431">
      <stop
         style="stop-color:#a1d0d2;stop-opacity:1"
         offset="0"
         id="stop4433" />
      <stop
         style="stop-color:#418387;stop-opacity:1"
         offset="1"
         id="stop4435" />
    </linearGradient>
    <linearGradient
       inkscape:collect="always"
       id="linearGradient4423">
      <stop
         style="stop-color:#45868a;stop-opacity:1"
         offset="0"
         id="stop4425" />
      <stop
         style="stop-color:#96c9cc;stop-opacity:1"
         offset="1"
         id="stop4427" />
    </linearGradient>
    <linearGradient
       inkscape:collect="always"
       id="linearGradient4415">
      <stop
         style="stop-color:#408286;stop-opacity:1"
         offset="0"
         id="stop4417" />
      <stop
         style="stop-color:#aad4d6;stop-opacity:1"
         offset="1"
         id="stop4419" />
    </linearGradient>
    <linearGradient
       inkscape:collect="always"
       id="linearGradient4377">
      <stop
         style="stop-color:#3c797c;stop-opacity:1"
         offset="0"
         id="stop4379" />
      <stop
         style="stop-color:#3c797c;stop-opacity:0.06185567"
         offset="1"
         id="stop4381" />
    </linearGradient>
    <linearGradient
       inkscape:collect="always"
       id="linearGradient4365">
      <stop
         style="stop-color:#4d9b9f;stop-opacity:1;"
         offset="0"
         id="stop4367" />
      <stop
         style="stop-color:#4d9b9f;stop-opacity:0;"
         offset="1"
         id="stop4369" />
    </linearGradient>
    <linearGradient
       inkscape:collect="always"
       id="linearGradient4341">
      <stop
         style="stop-color:#3d7c7e;stop-opacity:1;"
         offset="0"
         id="stop4343" />
      <stop
         style="stop-color:#3d7c7e;stop-opacity:0;"
         offset="1"
         id="stop4345" />
    </linearGradient>
    <linearGradient
       inkscape:collect="always"
       id="linearGradient4325">
      <stop
         style="stop-color:#3d7c7e;stop-opacity:1;"
         offset="0"
         id="stop4327" />
      <stop
         style="stop-color:#3d7c7e;stop-opacity:0;"
         offset="1"
         id="stop4329" />
    </linearGradient>
    <inkscape:perspective
       sodipodi:type="inkscape:persp3d"
       inkscape:vp_x="-4.5351701e-07 : 1050.4503 : 1"
       inkscape:vp_y="6.1230318e-14 : 1000 : 0"
       inkscape:vp_z="742.07417 : 1048.43 : 1"
       inkscape:persp3d-origin="372.04724 : 350.78739 : 1"
       id="perspective3034" />
    <linearGradient
       id="linearGradient2987">
      <stop
         style="stop-color:#30d6c8;stop-opacity:1;"
         offset="0"
         id="stop2989" />
      <stop
         style="stop-color:#35f3e3;stop-opacity:0;"
         offset="1"
         id="stop2991" />
    </linearGradient>
    <radialGradient
       inkscape:collect="always"
       xlink:href="#linearGradient4325"
       id="radialGradient4335"
       gradientUnits="userSpaceOnUse"
       gradientTransform="matrix(1.0435488,-0.00698023,0.00439518,0.65708192,-13.014744,45.732252)"
       cx="285.98215"
       cy="127.54075"
       fx="285.98215"
       fy="127.54075"
       r="12.232142" />
    <linearGradient
       inkscape:collect="always"
       xlink:href="#linearGradient4325"
       id="linearGradient4337"
       x1="273.75"
       y1="127.54075"
       x2="298.21429"
       y2="127.54075"
       gradientUnits="userSpaceOnUse" />
    <linearGradient
       inkscape:collect="always"
       xlink:href="#linearGradient4341"
       id="linearGradient4349"
       x1="273.57144"
       y1="109.05862"
       x2="306.60715"
       y2="109.05862"
       gradientUnits="userSpaceOnUse" />
    <radialGradient
       inkscape:collect="always"
       xlink:href="#linearGradient4365"
       id="radialGradient4371"
       cx="486.61009"
       cy="332.19772"
       fx="486.61009"
       fy="332.19772"
       r="42.4375"
       gradientTransform="matrix(1,0,0,0.39027982,63.214286,191.83336)"
       gradientUnits="userSpaceOnUse" />
    <radialGradient
       inkscape:collect="always"
       xlink:href="#linearGradient4377"
       id="radialGradient4383"
       cx="515.89288"
       cy="322.89789"
       fx="515.89288"
       fy="322.89789"
       r="32.67857"
       gradientTransform="matrix(1.0111423,-0.00722564,0.00402098,0.56268868,-7.0466172,144.93456)"
       gradientUnits="userSpaceOnUse" />
    <filter
       id="filter4387"
       inkscape:label="Simple blur"
       inkscape:menu="ABCs"
       inkscape:menu-tooltip="Simple Gaussian blur, same as the blur slider in Fill and Stroke dialog"
       color-interpolation-filters="sRGB">
      <feGaussianBlur
         id="feGaussianBlur4389"
         stdDeviation="3" />
    </filter>
    <linearGradient
       inkscape:collect="always"
       xlink:href="#linearGradient4415"
       id="linearGradient4421"
       x1="491.55322"
       y1="20.997984"
       x2="484.50433"
       y2="45.746723"
       gradientUnits="userSpaceOnUse"
       gradientTransform="matrix(0.96727046,0,0,0.956959,-121.11164,102.81957)" />
    <linearGradient
       inkscape:collect="always"
       xlink:href="#linearGradient4423"
       id="linearGradient4429"
       x1="488.59329"
       y1="51.823124"
       x2="563.41351"
       y2="47.362381"
       gradientUnits="userSpaceOnUse"
       gradientTransform="matrix(0.97950663,0,0,0.96242882,-125.26088,103.14185)" />
    <linearGradient
       inkscape:collect="always"
       xlink:href="#linearGradient4431"
       id="linearGradient4437"
       x1="367.60669"
       y1="106.0914"
       x2="432.61493"
       y2="104.86119"
       gradientUnits="userSpaceOnUse"
       gradientTransform="matrix(0.99150331,0,0,0.92376208,-5.7435298,20.31301)" />
    <linearGradient
       inkscape:collect="always"
       xlink:href="#linearGradient4439"
       id="linearGradient4445"
       x1="469.36945"
       y1="113.22723"
       x2="480.35608"
       y2="89.120087"
       gradientUnits="userSpaceOnUse"
       gradientTransform="translate(-50,28.928571)" />
  </defs>
  <sodipodi:namedview
     id="base"
     pagecolor="#ffffff"
     bordercolor="#666666"
     borderopacity="1.0"
     inkscape:pageopacity="0.0"
     inkscape:pageshadow="2"
     inkscape:zoom="0.98994949"
     inkscape:cx="371.42789"
     inkscape:cy="974.90739"
     inkscape:document-units="px"
     inkscape:current-layer="layer1"
     showgrid="false"
     inkscape:window-width="1575"
     inkscape:window-height="920"
     inkscape:window-x="109"
     inkscape:window-y="29"
     inkscape:window-maximized="0" />
  <metadata
     id="metadata7">
    <rdf:RDF>
      <cc:Work
         rdf:about="">
        <dc:format>image/svg+xml</dc:format>
        <dc:type
           rdf:resource="http://purl.org/dc/dcmitype/StillImage" />
        <dc:title></dc:title>
      </cc:Work>
    </rdf:RDF>
  </metadata>
  <g
     inkscape:label="Layer 1"
     inkscape:groupmode="layer"
     id="layer1">
    <g
       id="g3921"
       transform="matrix(0.6738546,0,0,0.6738546,299.31445,-91.100841)">
      <g
         id="g3923">
        <g
           id="g3925">
          <path
             i:knockout="Off"
             d="m 488.922,684.337 c -0.512,-1.527 -2.121,-4.267 -3.566,-6.09 -1.449,-1.826 -3.807,-3.986 -5.238,-4.802 -1.434,-0.818 -7.984,0.972 -11.299,2.488 l -2.418,1.104 c -3.314,1.517 -6.072,2.779 -6.127,2.806 -0.055,0.029 -0.445,0 -0.746,-0.124 -0.305,-0.131 -3.99,-1.039 -7.541,-1.868 l -6.355,-1.485 c -3.553,-0.83 -7.645,-1.621 -9.1,-1.758 -1.455,-0.138 -7.658,0.901 -11.209,1.716 l -6.805,1.563 c -3.553,0.814 -6.705,1.556 -7.004,1.646 -0.301,0.088 -1.139,0.394 -1.195,0.363 -0.057,-0.032 -2.92,-1.343 -6.234,-2.859 l -2.416,-1.104 c -3.316,-1.517 -7.406,-2.856 -9.092,-2.98 -1.686,-0.124 -5.998,3.468 -7.445,5.294 -1.451,1.823 -3.057,4.565 -3.57,6.091 -0.516,1.526 2.275,7.541 4.316,10.562 l 4.17,6.185 c 2.037,3.021 3.16,6.513 2.49,7.758 -0.668,1.25 -1.58,3.47 -2.029,4.936 -0.451,1.468 0.068,7.903 0.678,11.497 l 1.301,7.671 c 0.609,3.594 1.752,7.736 2.541,9.205 0.789,1.472 7.041,4.068 10.58,4.944 l 1.582,0.393 c 3.537,0.877 8.176,4.014 10.307,6.97 l 2.859,3.955 c 2.129,2.957 4.91,6.201 6.178,7.213 1.262,1.01 6.604,1.837 8.709,1.837 2.109,0 5.104,-0.356 6.664,-0.791 1.561,-0.434 6.092,-5.302 8.223,-8.259 l 2.811,-3.894 c 2.133,-2.953 6.768,-6.098 10.303,-6.985 l 1.648,-0.415 c 3.535,-0.888 7.576,-2.35 8.98,-3.249 1.404,-0.899 3.518,-7.33 4.129,-10.924 l 1.299,-7.669 c 0.607,-3.596 1.072,-7.788 1.033,-9.325 -0.039,-1.532 -1.717,-5.859 -2.385,-7.109 -0.668,-1.245 0.455,-4.736 2.49,-7.758 l 4.17,-6.185 c 2.037,-3.022 4.829,-9.037 4.313,-10.564 z m -99.104,7.021 c -1.814,-2.687 -3.373,-5.086 -3.469,-5.328 0,0 0,0 0,-0.278 0,-0.349 0,-0.349 0,-0.349 0.141,-0.318 1.441,-2.068 2.889,-3.894 1.449,-1.822 2.867,-3.426 3.15,-3.564 0.283,-0.136 3.781,1.247 7.096,2.76 l 0.518,0.238 c 3.314,1.515 5.979,2.831 5.92,2.925 -0.061,0.095 -1.609,2.973 -3.328,6.188 l -2.914,5.446 c -1.721,3.214 -8.049,-1.455 -9.862,-4.144 z m 85.34,24.889 c 0.041,0.888 -0.428,4.557 -1.035,8.151 l -1.303,7.672 c -0.607,3.592 -1.324,6.901 -1.598,7.353 -0.266,0.449 -3.336,1.533 -5.969,2.195 -2.635,0.662 -4.703,0.771 -4.602,0.246 0.102,-0.529 -1.426,-4.229 -3.395,-7.098 -1.973,-2.866 -3.584,-5.13 -3.582,-5.03 0.004,0.101 0.453,2.454 0.957,5.005 0.502,2.555 0.869,5.281 0.814,6.059 -0.055,0.779 -0.945,2.584 -1.234,2.989 -0.293,0.404 -1.604,2.222 -2.916,4.038 -1.314,1.817 -3.939,5.462 -5.844,8.098 -1.9,2.634 -3.908,5.13 -4.463,5.54 -0.553,0.41 -3.639,0.748 -5.748,0.748 -2.105,0 -4.367,-0.171 -5.025,-0.38 -0.654,-0.208 -3.303,-3.294 -5.221,-5.955 -1.922,-2.661 -4.563,-6.32 -5.869,-8.132 -1.306,-1.812 -2.6,-3.606 -2.881,-3.992 -0.275,-0.384 -0.73,-1.298 -1.006,-2.027 -0.275,-0.731 0.111,-4.431 0.611,-6.985 0.504,-2.551 0.924,-4.721 0.939,-4.824 0.014,-0.102 -1.59,1.982 -3.561,4.85 -1.973,2.868 -3.555,5.635 -3.52,6.149 0.033,0.516 -1.857,1.328 -4.486,0.675 -2.631,-0.652 -5.133,-1.435 -5.561,-1.735 -0.426,-0.301 -1.395,-4.193 -2.004,-7.785 l -1.301,-7.672 c -0.607,-3.595 -1.074,-7.264 -1.033,-8.151 0.039,-0.893 1.018,-3.396 1.5,-4.293 0.48,-0.898 2.281,-4.265 4.002,-7.478 l 6.393,-11.946 c 1.721,-3.212 3.559,-6.286 4.088,-6.833 0.529,-0.546 1.98,-1.226 2.047,-1.241 0.068,-0.015 3.027,-0.695 6.58,-1.509 l 6.563,-1.508 c 3.551,-0.816 7.291,-1.55 8.313,-1.632 1.021,-0.081 6.072,0.839 9.623,1.669 l 6.121,1.429 c 3.549,0.83 6.506,1.522 6.57,1.538 0.064,0.014 0.664,0.33 1.33,0.699 0.668,0.37 3.088,4.176 4.809,7.388 l 6.393,11.946 c 1.719,3.213 3.523,6.579 4.002,7.478 0.485,0.896 1.465,3.398 1.502,4.291 z m 8.977,-30.217 c -0.096,0.242 -1.658,2.642 -3.469,5.328 -1.811,2.688 -8.141,7.357 -9.859,4.144 l -2.916,-5.446 c -1.723,-3.215 -3.172,-5.921 -3.225,-6.016 -0.057,-0.094 2.502,-1.582 5.816,-3.097 l 0.516,-0.238 c 3.314,-1.513 6.334,-2.76 6.711,-2.771 0.377,-0.008 2.088,1.753 3.537,3.575 1.445,1.825 2.748,3.575 2.889,3.894 0,0 0,0 0,0.349 0,0.278 0,0.278 0,0.278 z"
             id="path3927"
             inkscape:connector-curvature="0" />
          <path
             i:knockout="Off"
             d="m 425.98,734.94 c -0.781,-1.565 0.008,-2.852 1.764,-2.852 h 14.996 c 1.752,0 2.545,1.286 1.764,2.852 l -7.838,8.91 c -0.783,1.567 -2.063,1.567 -2.848,0 l -7.838,-8.91 z"
             id="path3929"
             inkscape:connector-curvature="0" />
          <path
             i:knockout="Off"
             d="m 435.242,754.049 c 0.002,0 1.059,0.969 2.354,2.151 l 5.092,4.654 c 1.299,1.181 2.713,1.3 3.146,0.259 0.433,-1.041 -0.393,-2.698 -1.842,-3.687 l -4.824,-3.289 c -1.449,-0.988 -2.631,-1.829 -2.625,-1.868 0.006,-0.037 0.012,-1.58 0.012,-3.334 v -8.983 c 0,-1.755 -0.264,-3.78 -0.588,-4.501 0,0 0,0 -0.725,0 -0.725,0 -0.725,0 -0.725,0 -0.322,0.721 -0.588,2.746 -0.588,4.501 v 8.983 c 0,1.754 0.004,3.222 0.006,3.263 0.004,0.038 -1.17,0.951 -2.619,1.939 l -4.824,3.289 c -1.447,0.988 -2.279,2.646 -1.842,3.687 0.436,1.041 1.848,0.922 3.145,-0.259 l 5.094,-4.654 c 1.295,-1.182 2.353,-2.151 2.353,-2.151 z"
             id="path3931"
             inkscape:connector-curvature="0" />
          <g
             id="g3933">
            <path
               i:knockout="Off"
               d="m 407.346,711.372 c -1.885,0.054 -1.898,0.315 -0.035,0.582 l 15.641,2.233 c 1.863,0.267 3.246,2.018 3.07,3.89 l -1.996,6.98 c -0.168,1.872 0.416,3.459 1.309,3.523 0.891,0.065 1.625,0.057 1.631,-0.019 0.004,-0.075 0.076,-1.675 0.156,-3.556 l 1.633,-6.551 c 0.082,-1.881 0.188,-4.381 0.238,-5.557 0.055,-1.176 -0.443,-2.124 -1.102,-2.104 -0.659,0.02 -2.736,0.076 -4.619,0.13 l -15.926,0.449 z"
               id="path3935"
               inkscape:connector-curvature="0" />
            <path
               i:knockout="Off"
               d="m 447.213,710.925 c -1.883,-0.054 -3.961,-0.11 -4.615,-0.13 -0.662,-0.02 -1.16,0.929 -1.109,2.104 0.051,1.175 0.16,3.676 0.242,5.557 l 1.631,6.551 c 0.082,1.881 0.152,3.48 0.162,3.556 0.002,0.075 0.736,0.084 1.627,0.019 0.893,-0.064 1.479,-1.651 1.305,-3.523 l -1.994,-6.98 c -0.172,-1.872 1.211,-3.623 3.072,-3.89 l 15.639,-2.233 c 1.863,-0.267 1.852,-0.528 -0.033,-0.582 l -15.927,-0.449 z"
               id="path3937"
               inkscape:connector-curvature="0" />
          </g>
          <g
             id="g3939">
            <circle
               i:knockout="Off"
               cx="419.233"
               cy="713.73401"
               r="2.1689999"
               id="circle3941"
               sodipodi:cx="419.233"
               sodipodi:cy="713.73401"
               sodipodi:rx="2.1689999"
               sodipodi:ry="2.1689999"
               d="m 421.402,713.73401 c 0,1.1979 -0.97109,2.169 -2.169,2.169 -1.1979,0 -2.169,-0.9711 -2.169,-2.169 0,-1.19791 0.9711,-2.169 2.169,-2.169 1.19791,0 2.169,0.97109 2.169,2.169 z" />
            <circle
               i:knockout="Off"
               cx="451.25201"
               cy="713.73401"
               r="2.1719999"
               id="circle3943"
               sodipodi:cx="451.25201"
               sodipodi:cy="713.73401"
               sodipodi:rx="2.1719999"
               sodipodi:ry="2.1719999"
               d="m 453.42401,713.73401 c 0,1.19956 -0.97243,2.172 -2.172,2.172 -1.19956,0 -2.172,-0.97244 -2.172,-2.172 0,-1.19956 0.97244,-2.172 2.172,-2.172 1.19957,0 2.172,0.97244 2.172,2.172 z" />
          </g>
          <g
             id="g3945">
            <g
               id="g3947">
              <g
                 i:knockout="Off"
                 id="g3949">
                <g
                   id="g3951">
                  <path
                     i:knockout="Off"
                     d="m 426.752,741.214 c -12.4,3.276 -22.723,9.208 -32.809,17.086"
                     id="path3953"
                     inkscape:connector-curvature="0"
                     style="fill:none" />
                  <path
                     i:knockout="Off"
                     d="m 426.619,740.462 c -11.969,2.977 -23.877,9.106 -33.094,17.345 -0.637,0.569 0.157,1.437 0.836,0.986 10.549,-6.997 20.299,-13.129 32.523,-16.827 0.919,-0.278 0.707,-1.745 -0.265,-1.504 l 0,0 z"
                     id="path3955"
                     inkscape:connector-curvature="0" />
                </g>
              </g>
              <g
                 i:knockout="Off"
                 id="g3957">
                <g
                   id="g3959">
                  <path
                     i:knockout="Off"
                     d="m 427.039,745.338 c -9.117,0.893 -18.318,11.325 -23.967,18.15"
                     id="path3961"
                     inkscape:connector-curvature="0"
                     style="fill:none" />
                  <path
                     i:knockout="Off"
                     d="m 426.932,744.727 c -9.865,0.923 -19.195,10.529 -24.314,18.443 -0.332,0.513 0.34,1.19 0.814,0.742 7.282,-6.883 13.182,-15.896 23.715,-17.963 0.795,-0.156 0.572,-1.297 -0.215,-1.222 l 0,0 z"
                     id="path3963"
                     inkscape:connector-curvature="0" />
                </g>
              </g>
              <g
                 i:knockout="Off"
                 id="g3965">
                <g
                   id="g3967">
                  <path
                     i:knockout="Off"
                     d="m 427.908,749.485 c -8.828,2.454 -16.09,14.315 -20.479,22.01"
                     id="path3969"
                     inkscape:connector-curvature="0"
                     style="fill:none" />
                  <path
                     i:knockout="Off"
                     d="m 427.801,748.874 c -9.565,2.557 -17.276,13.747 -20.892,22.429 -0.25,0.601 0.605,1.001 0.976,0.511 6.025,-7.987 10.223,-17.989 20.29,-21.768 0.653,-0.245 0.301,-1.353 -0.374,-1.172 l 0,0 z"
                     id="path3971"
                     inkscape:connector-curvature="0" />
                </g>
              </g>
            </g>
            <g
               id="g3973">
              <g
                 i:knockout="Off"
                 id="g3975">
                <g
                   id="g3977">
                  <path
                     i:knockout="Off"
                     d="m 443.734,741.214 c 12.398,3.276 22.719,9.208 32.803,17.086"
                     id="path3979"
                     inkscape:connector-curvature="0"
                     style="fill:none" />
                  <path
                     i:knockout="Off"
                     d="m 443.47,741.93 c 12.25,3.709 22.133,9.898 32.696,16.899 0.714,0.473 1.349,-0.517 0.742,-1.059 -9.146,-8.169 -21.029,-14.317 -32.909,-17.272 -0.936,-0.233 -1.485,1.143 -0.529,1.432 l 0,0 z"
                     id="path3981"
                     inkscape:connector-curvature="0" />
                </g>
              </g>
              <g
                 i:knockout="Off"
                 id="g3983">
                <g
                   id="g3985">
                  <path
                     i:knockout="Off"
                     d="m 443.445,745.338 c 9.117,0.893 18.318,11.325 23.967,18.15"
                     id="path3987"
                     inkscape:connector-curvature="0"
                     style="fill:none" />
                  <path
                     i:knockout="Off"
                     d="m 443.387,745.956 c 10.465,2.051 16.37,11.05 23.602,17.892 0.526,0.497 1.236,-0.119 0.848,-0.719 -5.106,-7.878 -14.49,-17.489 -24.332,-18.409 -0.815,-0.076 -0.888,1.086 -0.118,1.236 l 0,0 z"
                     id="path3989"
                     inkscape:connector-curvature="0" />
                </g>
              </g>
              <g
                 i:knockout="Off"
                 id="g3991">
                <g
                   id="g3993">
                  <path
                     i:knockout="Off"
                     d="m 442.574,749.485 c 8.826,2.454 16.096,14.315 20.48,22.01"
                     id="path3995"
                     inkscape:connector-curvature="0"
                     style="fill:none" />
                  <path
                     i:knockout="Off"
                     d="m 442.358,750.067 c 10.052,3.775 14.26,13.81 20.272,21.787 0.395,0.522 1.158,-0.038 0.926,-0.598 -3.59,-8.625 -11.283,-19.818 -20.767,-22.354 -0.761,-0.203 -1.192,0.879 -0.431,1.165 l 0,0 z"
                     id="path3997"
                     inkscape:connector-curvature="0" />
                </g>
              </g>
            </g>
          </g>
          <g
             id="g3999">
            <g
               id="g4001">
              <circle
                 i:knockout="Off"
                 cx="414.70499"
                 cy="690.20203"
                 r="3.506"
                 id="circle4003"
                 sodipodi:cx="414.70499"
                 sodipodi:cy="690.20203"
                 sodipodi:rx="3.506"
                 sodipodi:ry="3.506"
                 d="m 418.21099,690.20203 c 0,1.93631 -1.56969,3.506 -3.506,3.506 -1.93631,0 -3.506,-1.56969 -3.506,-3.506 0,-1.93631 1.56969,-3.506 3.506,-3.506 1.93631,0 3.506,1.56969 3.506,3.506 z" />
              <circle
                 i:knockout="Off"
                 cx="410.56201"
                 cy="698.62097"
                 r="2.921"
                 id="circle4005"
                 sodipodi:cx="410.56201"
                 sodipodi:cy="698.62097"
                 sodipodi:rx="2.921"
                 sodipodi:ry="2.921"
                 d="m 413.48301,698.62097 c 0,1.61323 -1.30777,2.921 -2.921,2.921 -1.61322,0 -2.921,-1.30777 -2.921,-2.921 0,-1.61322 1.30778,-2.921 2.921,-2.921 1.61323,0 2.921,1.30778 2.921,2.921 z" />
              <path
                 i:knockout="Off"
                 d="m 426.793,689.1 c -0.588,1.846 -1.811,3.105 -2.734,2.811 -0.922,-0.293 -1.195,-2.026 -0.605,-3.872 0.584,-1.845 1.809,-3.104 2.73,-2.81 0.921,0.292 1.195,2.028 0.609,3.871 z"
                 id="path4007"
                 inkscape:connector-curvature="0" />
              <path
                 i:knockout="Off"
                 d="m 422.381,699.521 c 0,0.97 -0.914,1.754 -2.047,1.754 -1.129,0 -2.045,-0.784 -2.045,-1.754 0,-0.969 0.916,-1.752 2.045,-1.752 1.133,10e-4 2.047,0.784 2.047,1.752 z"
                 id="path4009"
                 inkscape:connector-curvature="0" />
            </g>
            <g
               id="g4011">
              <path
                 i:knockout="Off"
                 d="m 465.488,732.979 c -0.721,1.444 -0.135,3.196 1.311,3.917 1.443,0.722 3.197,0.135 3.918,-1.309 0.721,-1.445 0.131,-3.201 -1.311,-3.918 -1.443,-0.723 -3.197,-0.135 -3.918,1.31 z"
                 id="path4013"
                 inkscape:connector-curvature="0" />
              <path
                 i:knockout="Off"
                 d="m 466.172,725.515 c -0.299,1.914 0.234,3.587 1.189,3.736 0.959,0.148 1.975,-1.28 2.275,-3.192 0.299,-1.914 -0.232,-3.586 -1.193,-3.734 -0.953,-0.151 -1.972,1.278 -2.271,3.19 z"
                 id="path4015"
                 inkscape:connector-curvature="0" />
              <path
                 i:knockout="Off"
                 d="m 460.797,729.959 c -0.434,0.866 0.035,1.979 1.045,2.481 1.014,0.505 2.184,0.211 2.613,-0.655 0.434,-0.866 -0.037,-1.978 -1.045,-2.48 -1.012,-0.506 -2.183,-0.211 -2.613,0.654 z"
                 id="path4017"
                 inkscape:connector-curvature="0" />
            </g>
          </g>
        </g>
      </g>
    </g>
    <g
       id="g4287"
       transform="translate(-99.535921,111.5352)">
      <path
         id="path4285"
         d="M 681.875,104.4375 719.6875,87.5 684.28125,77.9375 644.625,89.8125 l 37.25,14.625 z"
         style="fill:#4d9b9f;fill-opacity:1;fill-rule:evenodd;stroke:none"
         inkscape:connector-curvature="0" />
      <path
         id="path4275"
         d="m 681.875,104.4375 -37.25,-14.625 -47.625,14.25 43.59375,18.875 41.28125,-18.5 z"
         style="fill:#4d9b9f;fill-opacity:1;fill-rule:evenodd;stroke:none"
         inkscape:connector-curvature="0" />
      <path
         id="path4282"
         d="M 724.9375,121.40625 768.21875,100.625 719.6875,87.5 l -37.8125,16.9375 43.0625,16.96875 z"
         style="fill:#4d9b9f;fill-opacity:1;fill-rule:evenodd;stroke:none"
         inkscape:connector-curvature="0" />
      <path
         id="path4248"
         d="m 724.9375,121.40625 -43.0625,-16.96875 -41.28125,18.5 42.65625,18.46875 41.6875,-20 z"
         style="fill:#4d9b9f;fill-opacity:1;fill-rule:evenodd;stroke:none"
         inkscape:connector-curvature="0" />
    </g>
    <path
       d="m 493.30106,300.12054 86.26091,37.33012 84.96582,-40.75761 -83.93013,-22.68887 z"
       style="fill:#4d9b9f;fill-opacity:1;fill-rule:evenodd;stroke:none"
       id="path4385"
       inkscape:connector-curvature="0" />
    <g
       transform="translate(424.13927,-59.708488)"
       id="g4391">
      <path
         inkscape:connector-curvature="0"
         id="path4393"
         d="m 153.56522,184.23954 37.8125,-16.9375 -35.40625,-9.5625 -38.89864,10.10723 z"
         style="fill:#4d9b9f;fill-opacity:1;fill-rule:evenodd;stroke:#000000;stroke-opacity:1"
         sodipodi:nodetypes="ccccc" />
      <path
         inkscape:connector-curvature="0"
         id="path4395"
         d="m 153.56522,184.23954 -37.25,-14.625 -47.625,14.25 41.06837,15.08693 z"
         style="fill:#4d9b9f;fill-opacity:1;fill-rule:evenodd;stroke:#000000;stroke-opacity:1"
         sodipodi:nodetypes="ccccc" />
      <path
         inkscape:connector-curvature="0"
         id="path4397"
         d="m 196.62772,201.20829 43.28125,-20.78125 -48.27871,-14.64023 -38.06504,18.45273 z"
         style="fill:#4d9b9f;fill-opacity:1;fill-rule:evenodd;stroke:#000000;stroke-opacity:1"
         sodipodi:nodetypes="ccccc" />
      <path
         inkscape:connector-curvature="0"
         id="path4399"
         d="m 195.87011,198.43037 -42.30489,-14.19083 -41.28125,18.5 42.65625,18.46875 z"
         style="fill:#4d9b9f;fill-opacity:1;fill-rule:evenodd;stroke:#000000;stroke-opacity:1"
         sodipodi:nodetypes="ccccc" />
    </g>
    <g
       id="g4447"
       transform="translate(-231.32493,-51.51778)"
       inkscape:export-filename="/home/huseyinkozan/Masaüstü/pisido-logo.png"
       inkscape:export-xdpi="90"
       inkscape:export-ydpi="90">
      <path
         transform="matrix(1.0217674,0,0,0.89811878,-6.4068086,24.432645)"
         d="m 301.53053,218.32431 86.26091,63.48131 84.96582,-69.30989 -83.93013,-38.5833 z"
         style="fill:#4d9b9f;fill-opacity:1;fill-rule:evenodd;stroke:none;filter:url(#filter4387)"
         id="path4133"
         inkscape:connector-curvature="0" />
      <g
         id="g4142">
        <path
           inkscape:connector-curvature="0"
           id="path4121"
           style="fill:#afafde;fill-rule:evenodd;stroke:none"
           d="m 306.07622,212.05071 86.26091,59.22304 84.96582,-64.9485 -83.93013,-35.94455 z" />
        <path
           inkscape:connector-curvature="0"
           id="path4123"
           style="fill:#353564;fill-rule:evenodd;stroke:none"
           d="m 306.07622,134.36887 0,77.68184 87.2966,-41.67001 0,-62.12819 z" />
        <path
           inkscape:connector-curvature="0"
           id="path4125"
           style="fill:#e9e9ff;fill-rule:evenodd;stroke:none"
           d="m 393.37282,108.25251 83.93013,22.68887 0,75.38387 -83.93013,-35.94455 z" />
        <path
           inkscape:connector-curvature="0"
           id="path4127"
           style="fill:#4d9b9f;fill-opacity:1;fill-rule:evenodd;stroke:none"
           d="m 306.07622,134.36887 86.26091,37.33012 84.96582,-40.75761 -83.93013,-22.68887 z" />
        <path
           inkscape:connector-curvature="0"
           id="path4129"
           style="fill:#d7faff;fill-opacity:1;fill-rule:evenodd;stroke:none"
           d="m 392.33713,171.69899 0,99.57476 84.96582,-64.9485 0,-75.38387 z" />
        <path
           inkscape:connector-curvature="0"
           id="path4131"
           style="fill:#86b5bf;fill-opacity:1;fill-rule:evenodd;stroke:none"
           d="m 306.07622,134.36887 86.26091,37.33012 0,99.57476 -86.26091,-59.22304 z" />
        <g
           transform="matrix(0.60806799,-0.30874006,0,0.65108967,170.86883,-139.86767)"
           id="g499">
          <g
             id="g501">
            <g
               id="g503">
              <path
                 inkscape:connector-curvature="0"
                 id="path505"
                 d="m 488.922,684.337 c -0.512,-1.527 -2.121,-4.267 -3.566,-6.09 -1.449,-1.826 -3.807,-3.986 -5.238,-4.802 -1.434,-0.818 -7.984,0.972 -11.299,2.488 l -2.418,1.104 c -3.314,1.517 -6.072,2.779 -6.127,2.806 -0.055,0.029 -0.445,0 -0.746,-0.124 -0.305,-0.131 -3.99,-1.039 -7.541,-1.868 l -6.355,-1.485 c -3.553,-0.83 -7.645,-1.621 -9.1,-1.758 -1.455,-0.138 -7.658,0.901 -11.209,1.716 l -6.805,1.563 c -3.553,0.814 -6.705,1.556 -7.004,1.646 -0.301,0.088 -1.139,0.394 -1.195,0.363 -0.057,-0.032 -2.92,-1.343 -6.234,-2.859 l -2.416,-1.104 c -3.316,-1.517 -7.406,-2.856 -9.092,-2.98 -1.686,-0.124 -5.998,3.468 -7.445,5.294 -1.451,1.823 -3.057,4.565 -3.57,6.091 -0.516,1.526 2.275,7.541 4.316,10.562 l 4.17,6.185 c 2.037,3.021 3.16,6.513 2.49,7.758 -0.668,1.25 -1.58,3.47 -2.029,4.936 -0.451,1.468 0.068,7.903 0.678,11.497 l 1.301,7.671 c 0.609,3.594 1.752,7.736 2.541,9.205 0.789,1.472 7.041,4.068 10.58,4.944 l 1.582,0.393 c 3.537,0.877 8.176,4.014 10.307,6.97 l 2.859,3.955 c 2.129,2.957 4.91,6.201 6.178,7.213 1.262,1.01 6.604,1.837 8.709,1.837 2.109,0 5.104,-0.356 6.664,-0.791 1.561,-0.434 6.092,-5.302 8.223,-8.259 l 2.811,-3.894 c 2.133,-2.953 6.768,-6.098 10.303,-6.985 l 1.648,-0.415 c 3.535,-0.888 7.576,-2.35 8.98,-3.249 1.404,-0.899 3.518,-7.33 4.129,-10.924 l 1.299,-7.669 c 0.607,-3.596 1.072,-7.788 1.033,-9.325 -0.039,-1.532 -1.717,-5.859 -2.385,-7.109 -0.668,-1.245 0.455,-4.736 2.49,-7.758 l 4.17,-6.185 c 2.037,-3.022 4.829,-9.037 4.313,-10.564 z m -99.104,7.021 c -1.814,-2.687 -3.373,-5.086 -3.469,-5.328 0,0 0,0 0,-0.278 0,-0.349 0,-0.349 0,-0.349 0.141,-0.318 1.441,-2.068 2.889,-3.894 1.449,-1.822 2.867,-3.426 3.15,-3.564 0.283,-0.136 3.781,1.247 7.096,2.76 l 0.518,0.238 c 3.314,1.515 5.979,2.831 5.92,2.925 -0.061,0.095 -1.609,2.973 -3.328,6.188 l -2.914,5.446 c -1.721,3.214 -8.049,-1.455 -9.862,-4.144 z m 85.34,24.889 c 0.041,0.888 -0.428,4.557 -1.035,8.151 l -1.303,7.672 c -0.607,3.592 -1.324,6.901 -1.598,7.353 -0.266,0.449 -3.336,1.533 -5.969,2.195 -2.635,0.662 -4.703,0.771 -4.602,0.246 0.102,-0.529 -1.426,-4.229 -3.395,-7.098 -1.973,-2.866 -3.584,-5.13 -3.582,-5.03 0.004,0.101 0.453,2.454 0.957,5.005 0.502,2.555 0.869,5.281 0.814,6.059 -0.055,0.779 -0.945,2.584 -1.234,2.989 -0.293,0.404 -1.604,2.222 -2.916,4.038 -1.314,1.817 -3.939,5.462 -5.844,8.098 -1.9,2.634 -3.908,5.13 -4.463,5.54 -0.553,0.41 -3.639,0.748 -5.748,0.748 -2.105,0 -4.367,-0.171 -5.025,-0.38 -0.654,-0.208 -3.303,-3.294 -5.221,-5.955 -1.922,-2.661 -4.563,-6.32 -5.869,-8.132 -1.306,-1.812 -2.6,-3.606 -2.881,-3.992 -0.275,-0.384 -0.73,-1.298 -1.006,-2.027 -0.275,-0.731 0.111,-4.431 0.611,-6.985 0.504,-2.551 0.924,-4.721 0.939,-4.824 0.014,-0.102 -1.59,1.982 -3.561,4.85 -1.973,2.868 -3.555,5.635 -3.52,6.149 0.033,0.516 -1.857,1.328 -4.486,0.675 -2.631,-0.652 -5.133,-1.435 -5.561,-1.735 -0.426,-0.301 -1.395,-4.193 -2.004,-7.785 l -1.301,-7.672 c -0.607,-3.595 -1.074,-7.264 -1.033,-8.151 0.039,-0.893 1.018,-3.396 1.5,-4.293 0.48,-0.898 2.281,-4.265 4.002,-7.478 l 6.393,-11.946 c 1.721,-3.212 3.559,-6.286 4.088,-6.833 0.529,-0.546 1.98,-1.226 2.047,-1.241 0.068,-0.015 3.027,-0.695 6.58,-1.509 l 6.563,-1.508 c 3.551,-0.816 7.291,-1.55 8.313,-1.632 1.021,-0.081 6.072,0.839 9.623,1.669 l 6.121,1.429 c 3.549,0.83 6.506,1.522 6.57,1.538 0.064,0.014 0.664,0.33 1.33,0.699 0.668,0.37 3.088,4.176 4.809,7.388 l 6.393,11.946 c 1.719,3.213 3.523,6.579 4.002,7.478 0.485,0.896 1.465,3.398 1.502,4.291 z m 8.977,-30.217 c -0.096,0.242 -1.658,2.642 -3.469,5.328 -1.811,2.688 -8.141,7.357 -9.859,4.144 l -2.916,-5.446 c -1.723,-3.215 -3.172,-5.921 -3.225,-6.016 -0.057,-0.094 2.502,-1.582 5.816,-3.097 l 0.516,-0.238 c 3.314,-1.513 6.334,-2.76 6.711,-2.771 0.377,-0.008 2.088,1.753 3.537,3.575 1.445,1.825 2.748,3.575 2.889,3.894 0,0 0,0 0,0.349 0,0.278 0,0.278 0,0.278 z"
                 i:knockout="Off" />
              <path
                 inkscape:connector-curvature="0"
                 id="path507"
                 d="m 425.98,734.94 c -0.781,-1.565 0.008,-2.852 1.764,-2.852 h 14.996 c 1.752,0 2.545,1.286 1.764,2.852 l -7.838,8.91 c -0.783,1.567 -2.063,1.567 -2.848,0 l -7.838,-8.91 z"
                 i:knockout="Off" />
              <path
                 inkscape:connector-curvature="0"
                 id="path509"
                 d="m 435.242,754.049 c 0.002,0 1.059,0.969 2.354,2.151 l 5.092,4.654 c 1.299,1.181 2.713,1.3 3.146,0.259 0.433,-1.041 -0.393,-2.698 -1.842,-3.687 l -4.824,-3.289 c -1.449,-0.988 -2.631,-1.829 -2.625,-1.868 0.006,-0.037 0.012,-1.58 0.012,-3.334 v -8.983 c 0,-1.755 -0.264,-3.78 -0.588,-4.501 0,0 0,0 -0.725,0 -0.725,0 -0.725,0 -0.725,0 -0.322,0.721 -0.588,2.746 -0.588,4.501 v 8.983 c 0,1.754 0.004,3.222 0.006,3.263 0.004,0.038 -1.17,0.951 -2.619,1.939 l -4.824,3.289 c -1.447,0.988 -2.279,2.646 -1.842,3.687 0.436,1.041 1.848,0.922 3.145,-0.259 l 5.094,-4.654 c 1.295,-1.182 2.353,-2.151 2.353,-2.151 z"
                 i:knockout="Off" />
              <g
                 id="g511">
                <path
                   inkscape:connector-curvature="0"
                   id="path513"
                   d="m 407.346,711.372 c -1.885,0.054 -1.898,0.315 -0.035,0.582 l 15.641,2.233 c 1.863,0.267 3.246,2.018 3.07,3.89 l -1.996,6.98 c -0.168,1.872 0.416,3.459 1.309,3.523 0.891,0.065 1.625,0.057 1.631,-0.019 0.004,-0.075 0.076,-1.675 0.156,-3.556 l 1.633,-6.551 c 0.082,-1.881 0.188,-4.381 0.238,-5.557 0.055,-1.176 -0.443,-2.124 -1.102,-2.104 -0.659,0.02 -2.736,0.076 -4.619,0.13 l -15.926,0.449 z"
                   i:knockout="Off" />
                <path
                   inkscape:connector-curvature="0"
                   id="path515"
                   d="m 447.213,710.925 c -1.883,-0.054 -3.961,-0.11 -4.615,-0.13 -0.662,-0.02 -1.16,0.929 -1.109,2.104 0.051,1.175 0.16,3.676 0.242,5.557 l 1.631,6.551 c 0.082,1.881 0.152,3.48 0.162,3.556 0.002,0.075 0.736,0.084 1.627,0.019 0.893,-0.064 1.479,-1.651 1.305,-3.523 l -1.994,-6.98 c -0.172,-1.872 1.211,-3.623 3.072,-3.89 l 15.639,-2.233 c 1.863,-0.267 1.852,-0.528 -0.033,-0.582 l -15.927,-0.449 z"
                   i:knockout="Off" />
              </g>
              <g
                 id="g517">
                <circle
                   d="m 421.402,713.73401 c 0,1.1979 -0.97109,2.169 -2.169,2.169 -1.1979,0 -2.169,-0.9711 -2.169,-2.169 0,-1.19791 0.9711,-2.169 2.169,-2.169 1.19791,0 2.169,0.97109 2.169,2.169 z"
                   sodipodi:ry="2.1689999"
                   sodipodi:rx="2.1689999"
                   sodipodi:cy="713.73401"
                   sodipodi:cx="419.233"
                   id="circle519"
                   r="2.1689999"
                   cy="713.73401"
                   cx="419.233"
                   i:knockout="Off" />
                <circle
                   d="m 453.42401,713.73401 c 0,1.19956 -0.97243,2.172 -2.172,2.172 -1.19956,0 -2.172,-0.97244 -2.172,-2.172 0,-1.19956 0.97244,-2.172 2.172,-2.172 1.19957,0 2.172,0.97244 2.172,2.172 z"
                   sodipodi:ry="2.1719999"
                   sodipodi:rx="2.1719999"
                   sodipodi:cy="713.73401"
                   sodipodi:cx="451.25201"
                   id="circle521"
                   r="2.1719999"
                   cy="713.73401"
                   cx="451.25201"
                   i:knockout="Off" />
              </g>
              <g
                 id="g523">
                <g
                   id="g525">
                  <g
                     id="g527"
                     i:knockout="Off">
                    <g
                       id="g529">
                      <path
                         style="fill:none"
                         inkscape:connector-curvature="0"
                         id="path531"
                         d="m 426.752,741.214 c -12.4,3.276 -22.723,9.208 -32.809,17.086"
                         i:knockout="Off" />
                      <path
                         inkscape:connector-curvature="0"
                         id="path533"
                         d="m 426.619,740.462 c -11.969,2.977 -23.877,9.106 -33.094,17.345 -0.637,0.569 0.157,1.437 0.836,0.986 10.549,-6.997 20.299,-13.129 32.523,-16.827 0.919,-0.278 0.707,-1.745 -0.265,-1.504 l 0,0 z"
                         i:knockout="Off" />
                    </g>
                  </g>
                  <g
                     id="g535"
                     i:knockout="Off">
                    <g
                       id="g537">
                      <path
                         style="fill:none"
                         inkscape:connector-curvature="0"
                         id="path539"
                         d="m 427.039,745.338 c -9.117,0.893 -18.318,11.325 -23.967,18.15"
                         i:knockout="Off" />
                      <path
                         inkscape:connector-curvature="0"
                         id="path541"
                         d="m 426.932,744.727 c -9.865,0.923 -19.195,10.529 -24.314,18.443 -0.332,0.513 0.34,1.19 0.814,0.742 7.282,-6.883 13.182,-15.896 23.715,-17.963 0.795,-0.156 0.572,-1.297 -0.215,-1.222 l 0,0 z"
                         i:knockout="Off" />
                    </g>
                  </g>
                  <g
                     id="g543"
                     i:knockout="Off">
                    <g
                       id="g545">
                      <path
                         style="fill:none"
                         inkscape:connector-curvature="0"
                         id="path547"
                         d="m 427.908,749.485 c -8.828,2.454 -16.09,14.315 -20.479,22.01"
                         i:knockout="Off" />
                      <path
                         inkscape:connector-curvature="0"
                         id="path549"
                         d="m 427.801,748.874 c -9.565,2.557 -17.276,13.747 -20.892,22.429 -0.25,0.601 0.605,1.001 0.976,0.511 6.025,-7.987 10.223,-17.989 20.29,-21.768 0.653,-0.245 0.301,-1.353 -0.374,-1.172 l 0,0 z"
                         i:knockout="Off" />
                    </g>
                  </g>
                </g>
                <g
                   id="g551">
                  <g
                     id="g553"
                     i:knockout="Off">
                    <g
                       id="g555">
                      <path
                         style="fill:none"
                         inkscape:connector-curvature="0"
                         id="path557"
                         d="m 443.734,741.214 c 12.398,3.276 22.719,9.208 32.803,17.086"
                         i:knockout="Off" />
                      <path
                         inkscape:connector-curvature="0"
                         id="path559"
                         d="m 443.47,741.93 c 12.25,3.709 22.133,9.898 32.696,16.899 0.714,0.473 1.349,-0.517 0.742,-1.059 -9.146,-8.169 -21.029,-14.317 -32.909,-17.272 -0.936,-0.233 -1.485,1.143 -0.529,1.432 l 0,0 z"
                         i:knockout="Off" />
                    </g>
                  </g>
                  <g
                     id="g561"
                     i:knockout="Off">
                    <g
                       id="g563">
                      <path
                         style="fill:none"
                         inkscape:connector-curvature="0"
                         id="path565"
                         d="m 443.445,745.338 c 9.117,0.893 18.318,11.325 23.967,18.15"
                         i:knockout="Off" />
                      <path
                         inkscape:connector-curvature="0"
                         id="path567"
                         d="m 443.387,745.956 c 10.465,2.051 16.37,11.05 23.602,17.892 0.526,0.497 1.236,-0.119 0.848,-0.719 -5.106,-7.878 -14.49,-17.489 -24.332,-18.409 -0.815,-0.076 -0.888,1.086 -0.118,1.236 l 0,0 z"
                         i:knockout="Off" />
                    </g>
                  </g>
                  <g
                     id="g569"
                     i:knockout="Off">
                    <g
                       id="g571">
                      <path
                         style="fill:none"
                         inkscape:connector-curvature="0"
                         id="path573"
                         d="m 442.574,749.485 c 8.826,2.454 16.096,14.315 20.48,22.01"
                         i:knockout="Off" />
                      <path
                         inkscape:connector-curvature="0"
                         id="path575"
                         d="m 442.358,750.067 c 10.052,3.775 14.26,13.81 20.272,21.787 0.395,0.522 1.158,-0.038 0.926,-0.598 -3.59,-8.625 -11.283,-19.818 -20.767,-22.354 -0.761,-0.203 -1.192,0.879 -0.431,1.165 l 0,0 z"
                         i:knockout="Off" />
                    </g>
                  </g>
                </g>
              </g>
              <g
                 id="g577">
                <g
                   id="g579">
                  <circle
                     d="m 418.21099,690.20203 c 0,1.93631 -1.56969,3.506 -3.506,3.506 -1.93631,0 -3.506,-1.56969 -3.506,-3.506 0,-1.93631 1.56969,-3.506 3.506,-3.506 1.93631,0 3.506,1.56969 3.506,3.506 z"
                     sodipodi:ry="3.506"
                     sodipodi:rx="3.506"
                     sodipodi:cy="690.20203"
                     sodipodi:cx="414.70499"
                     id="circle581"
                     r="3.506"
                     cy="690.20203"
                     cx="414.70499"
                     i:knockout="Off" />
                  <circle
                     d="m 413.48301,698.62097 c 0,1.61323 -1.30777,2.921 -2.921,2.921 -1.61322,0 -2.921,-1.30777 -2.921,-2.921 0,-1.61322 1.30778,-2.921 2.921,-2.921 1.61323,0 2.921,1.30778 2.921,2.921 z"
                     sodipodi:ry="2.921"
                     sodipodi:rx="2.921"
                     sodipodi:cy="698.62097"
                     sodipodi:cx="410.56201"
                     id="circle583"
                     r="2.921"
                     cy="698.62097"
                     cx="410.56201"
                     i:knockout="Off" />
                  <path
                     inkscape:connector-curvature="0"
                     id="path585"
                     d="m 426.793,689.1 c -0.588,1.846 -1.811,3.105 -2.734,2.811 -0.922,-0.293 -1.195,-2.026 -0.605,-3.872 0.584,-1.845 1.809,-3.104 2.73,-2.81 0.921,0.292 1.195,2.028 0.609,3.871 z"
                     i:knockout="Off" />
                  <path
                     inkscape:connector-curvature="0"
                     id="path587"
                     d="m 422.381,699.521 c 0,0.97 -0.914,1.754 -2.047,1.754 -1.129,0 -2.045,-0.784 -2.045,-1.754 0,-0.969 0.916,-1.752 2.045,-1.752 1.133,10e-4 2.047,0.784 2.047,1.752 z"
                     i:knockout="Off" />
                </g>
                <g
                   id="g589">
                  <path
                     inkscape:connector-curvature="0"
                     id="path591"
                     d="m 465.488,732.979 c -0.721,1.444 -0.135,3.196 1.311,3.917 1.443,0.722 3.197,0.135 3.918,-1.309 0.721,-1.445 0.131,-3.201 -1.311,-3.918 -1.443,-0.723 -3.197,-0.135 -3.918,1.31 z"
                     i:knockout="Off" />
                  <path
                     inkscape:connector-curvature="0"
                     id="path593"
                     d="m 466.172,725.515 c -0.299,1.914 0.234,3.587 1.189,3.736 0.959,0.148 1.975,-1.28 2.275,-3.192 0.299,-1.914 -0.232,-3.586 -1.193,-3.734 -0.953,-0.151 -1.972,1.278 -2.271,3.19 z"
                     i:knockout="Off" />
                  <path
                     inkscape:connector-curvature="0"
                     id="path595"
                     d="m 460.797,729.959 c -0.434,0.866 0.035,1.979 1.045,2.481 1.014,0.505 2.184,0.211 2.613,-0.655 0.434,-0.866 -0.037,-1.978 -1.045,-2.48 -1.012,-0.506 -2.183,-0.211 -2.613,0.654 z"
                     i:knockout="Off" />
                </g>
              </g>
            </g>
          </g>
        </g>
        <g
           transform="matrix(0.63626225,0.30780121,0,0.6517145,71.219306,-405.63782)"
           id="g4019">
          <g
             id="g4021">
            <g
               id="g4023">
              <path
                 inkscape:connector-curvature="0"
                 id="path4025"
                 d="m 488.922,684.337 c -0.512,-1.527 -2.121,-4.267 -3.566,-6.09 -1.449,-1.826 -3.807,-3.986 -5.238,-4.802 -1.434,-0.818 -7.984,0.972 -11.299,2.488 l -2.418,1.104 c -3.314,1.517 -6.072,2.779 -6.127,2.806 -0.055,0.029 -0.445,0 -0.746,-0.124 -0.305,-0.131 -3.99,-1.039 -7.541,-1.868 l -6.355,-1.485 c -3.553,-0.83 -7.645,-1.621 -9.1,-1.758 -1.455,-0.138 -7.658,0.901 -11.209,1.716 l -6.805,1.563 c -3.553,0.814 -6.705,1.556 -7.004,1.646 -0.301,0.088 -1.139,0.394 -1.195,0.363 -0.057,-0.032 -2.92,-1.343 -6.234,-2.859 l -2.416,-1.104 c -3.316,-1.517 -7.406,-2.856 -9.092,-2.98 -1.686,-0.124 -5.998,3.468 -7.445,5.294 -1.451,1.823 -3.057,4.565 -3.57,6.091 -0.516,1.526 2.275,7.541 4.316,10.562 l 4.17,6.185 c 2.037,3.021 3.16,6.513 2.49,7.758 -0.668,1.25 -1.58,3.47 -2.029,4.936 -0.451,1.468 0.068,7.903 0.678,11.497 l 1.301,7.671 c 0.609,3.594 1.752,7.736 2.541,9.205 0.789,1.472 7.041,4.068 10.58,4.944 l 1.582,0.393 c 3.537,0.877 8.176,4.014 10.307,6.97 l 2.859,3.955 c 2.129,2.957 4.91,6.201 6.178,7.213 1.262,1.01 6.604,1.837 8.709,1.837 2.109,0 5.104,-0.356 6.664,-0.791 1.561,-0.434 6.092,-5.302 8.223,-8.259 l 2.811,-3.894 c 2.133,-2.953 6.768,-6.098 10.303,-6.985 l 1.648,-0.415 c 3.535,-0.888 7.576,-2.35 8.98,-3.249 1.404,-0.899 3.518,-7.33 4.129,-10.924 l 1.299,-7.669 c 0.607,-3.596 1.072,-7.788 1.033,-9.325 -0.039,-1.532 -1.717,-5.859 -2.385,-7.109 -0.668,-1.245 0.455,-4.736 2.49,-7.758 l 4.17,-6.185 c 2.037,-3.022 4.829,-9.037 4.313,-10.564 z m -99.104,7.021 c -1.814,-2.687 -3.373,-5.086 -3.469,-5.328 0,0 0,0 0,-0.278 0,-0.349 0,-0.349 0,-0.349 0.141,-0.318 1.441,-2.068 2.889,-3.894 1.449,-1.822 2.867,-3.426 3.15,-3.564 0.283,-0.136 3.781,1.247 7.096,2.76 l 0.518,0.238 c 3.314,1.515 5.979,2.831 5.92,2.925 -0.061,0.095 -1.609,2.973 -3.328,6.188 l -2.914,5.446 c -1.721,3.214 -8.049,-1.455 -9.862,-4.144 z m 85.34,24.889 c 0.041,0.888 -0.428,4.557 -1.035,8.151 l -1.303,7.672 c -0.607,3.592 -1.324,6.901 -1.598,7.353 -0.266,0.449 -3.336,1.533 -5.969,2.195 -2.635,0.662 -4.703,0.771 -4.602,0.246 0.102,-0.529 -1.426,-4.229 -3.395,-7.098 -1.973,-2.866 -3.584,-5.13 -3.582,-5.03 0.004,0.101 0.453,2.454 0.957,5.005 0.502,2.555 0.869,5.281 0.814,6.059 -0.055,0.779 -0.945,2.584 -1.234,2.989 -0.293,0.404 -1.604,2.222 -2.916,4.038 -1.314,1.817 -3.939,5.462 -5.844,8.098 -1.9,2.634 -3.908,5.13 -4.463,5.54 -0.553,0.41 -3.639,0.748 -5.748,0.748 -2.105,0 -4.367,-0.171 -5.025,-0.38 -0.654,-0.208 -3.303,-3.294 -5.221,-5.955 -1.922,-2.661 -4.563,-6.32 -5.869,-8.132 -1.306,-1.812 -2.6,-3.606 -2.881,-3.992 -0.275,-0.384 -0.73,-1.298 -1.006,-2.027 -0.275,-0.731 0.111,-4.431 0.611,-6.985 0.504,-2.551 0.924,-4.721 0.939,-4.824 0.014,-0.102 -1.59,1.982 -3.561,4.85 -1.973,2.868 -3.555,5.635 -3.52,6.149 0.033,0.516 -1.857,1.328 -4.486,0.675 -2.631,-0.652 -5.133,-1.435 -5.561,-1.735 -0.426,-0.301 -1.395,-4.193 -2.004,-7.785 l -1.301,-7.672 c -0.607,-3.595 -1.074,-7.264 -1.033,-8.151 0.039,-0.893 1.018,-3.396 1.5,-4.293 0.48,-0.898 2.281,-4.265 4.002,-7.478 l 6.393,-11.946 c 1.721,-3.212 3.559,-6.286 4.088,-6.833 0.529,-0.546 1.98,-1.226 2.047,-1.241 0.068,-0.015 3.027,-0.695 6.58,-1.509 l 6.563,-1.508 c 3.551,-0.816 7.291,-1.55 8.313,-1.632 1.021,-0.081 6.072,0.839 9.623,1.669 l 6.121,1.429 c 3.549,0.83 6.506,1.522 6.57,1.538 0.064,0.014 0.664,0.33 1.33,0.699 0.668,0.37 3.088,4.176 4.809,7.388 l 6.393,11.946 c 1.719,3.213 3.523,6.579 4.002,7.478 0.485,0.896 1.465,3.398 1.502,4.291 z m 8.977,-30.217 c -0.096,0.242 -1.658,2.642 -3.469,5.328 -1.811,2.688 -8.141,7.357 -9.859,4.144 l -2.916,-5.446 c -1.723,-3.215 -3.172,-5.921 -3.225,-6.016 -0.057,-0.094 2.502,-1.582 5.816,-3.097 l 0.516,-0.238 c 3.314,-1.513 6.334,-2.76 6.711,-2.771 0.377,-0.008 2.088,1.753 3.537,3.575 1.445,1.825 2.748,3.575 2.889,3.894 0,0 0,0 0,0.349 0,0.278 0,0.278 0,0.278 z"
                 i:knockout="Off" />
              <path
                 inkscape:connector-curvature="0"
                 id="path4027"
                 d="m 425.98,734.94 c -0.781,-1.565 0.008,-2.852 1.764,-2.852 h 14.996 c 1.752,0 2.545,1.286 1.764,2.852 l -7.838,8.91 c -0.783,1.567 -2.063,1.567 -2.848,0 l -7.838,-8.91 z"
                 i:knockout="Off" />
              <path
                 inkscape:connector-curvature="0"
                 id="path4029"
                 d="m 435.242,754.049 c 0.002,0 1.059,0.969 2.354,2.151 l 5.092,4.654 c 1.299,1.181 2.713,1.3 3.146,0.259 0.433,-1.041 -0.393,-2.698 -1.842,-3.687 l -4.824,-3.289 c -1.449,-0.988 -2.631,-1.829 -2.625,-1.868 0.006,-0.037 0.012,-1.58 0.012,-3.334 v -8.983 c 0,-1.755 -0.264,-3.78 -0.588,-4.501 0,0 0,0 -0.725,0 -0.725,0 -0.725,0 -0.725,0 -0.322,0.721 -0.588,2.746 -0.588,4.501 v 8.983 c 0,1.754 0.004,3.222 0.006,3.263 0.004,0.038 -1.17,0.951 -2.619,1.939 l -4.824,3.289 c -1.447,0.988 -2.279,2.646 -1.842,3.687 0.436,1.041 1.848,0.922 3.145,-0.259 l 5.094,-4.654 c 1.295,-1.182 2.353,-2.151 2.353,-2.151 z"
                 i:knockout="Off" />
              <g
                 id="g4031">
                <path
                   inkscape:connector-curvature="0"
                   id="path4033"
                   d="m 407.346,711.372 c -1.885,0.054 -1.898,0.315 -0.035,0.582 l 15.641,2.233 c 1.863,0.267 3.246,2.018 3.07,3.89 l -1.996,6.98 c -0.168,1.872 0.416,3.459 1.309,3.523 0.891,0.065 1.625,0.057 1.631,-0.019 0.004,-0.075 0.076,-1.675 0.156,-3.556 l 1.633,-6.551 c 0.082,-1.881 0.188,-4.381 0.238,-5.557 0.055,-1.176 -0.443,-2.124 -1.102,-2.104 -0.659,0.02 -2.736,0.076 -4.619,0.13 l -15.926,0.449 z"
                   i:knockout="Off" />
                <path
                   inkscape:connector-curvature="0"
                   id="path4035"
                   d="m 447.213,710.925 c -1.883,-0.054 -3.961,-0.11 -4.615,-0.13 -0.662,-0.02 -1.16,0.929 -1.109,2.104 0.051,1.175 0.16,3.676 0.242,5.557 l 1.631,6.551 c 0.082,1.881 0.152,3.48 0.162,3.556 0.002,0.075 0.736,0.084 1.627,0.019 0.893,-0.064 1.479,-1.651 1.305,-3.523 l -1.994,-6.98 c -0.172,-1.872 1.211,-3.623 3.072,-3.89 l 15.639,-2.233 c 1.863,-0.267 1.852,-0.528 -0.033,-0.582 l -15.927,-0.449 z"
                   i:knockout="Off" />
              </g>
              <g
                 id="g4037">
                <circle
                   d="m 421.402,713.73401 c 0,1.1979 -0.97109,2.169 -2.169,2.169 -1.1979,0 -2.169,-0.9711 -2.169,-2.169 0,-1.19791 0.9711,-2.169 2.169,-2.169 1.19791,0 2.169,0.97109 2.169,2.169 z"
                   sodipodi:ry="2.1689999"
                   sodipodi:rx="2.1689999"
                   sodipodi:cy="713.73401"
                   sodipodi:cx="419.233"
                   id="circle4039"
                   r="2.1689999"
                   cy="713.73401"
                   cx="419.233"
                   i:knockout="Off" />
                <circle
                   d="m 453.42401,713.73401 c 0,1.19956 -0.97243,2.172 -2.172,2.172 -1.19956,0 -2.172,-0.97244 -2.172,-2.172 0,-1.19956 0.97244,-2.172 2.172,-2.172 1.19957,0 2.172,0.97244 2.172,2.172 z"
                   sodipodi:ry="2.1719999"
                   sodipodi:rx="2.1719999"
                   sodipodi:cy="713.73401"
                   sodipodi:cx="451.25201"
                   id="circle4041"
                   r="2.1719999"
                   cy="713.73401"
                   cx="451.25201"
                   i:knockout="Off" />
              </g>
              <g
                 id="g4043">
                <g
                   id="g4045">
                  <g
                     id="g4047"
                     i:knockout="Off">
                    <g
                       id="g4049">
                      <path
                         style="fill:none"
                         inkscape:connector-curvature="0"
                         id="path4051"
                         d="m 426.752,741.214 c -12.4,3.276 -22.723,9.208 -32.809,17.086"
                         i:knockout="Off" />
                      <path
                         inkscape:connector-curvature="0"
                         id="path4053"
                         d="m 426.619,740.462 c -11.969,2.977 -23.877,9.106 -33.094,17.345 -0.637,0.569 0.157,1.437 0.836,0.986 10.549,-6.997 20.299,-13.129 32.523,-16.827 0.919,-0.278 0.707,-1.745 -0.265,-1.504 l 0,0 z"
                         i:knockout="Off" />
                    </g>
                  </g>
                  <g
                     id="g4055"
                     i:knockout="Off">
                    <g
                       id="g4057">
                      <path
                         style="fill:none"
                         inkscape:connector-curvature="0"
                         id="path4059"
                         d="m 427.039,745.338 c -9.117,0.893 -18.318,11.325 -23.967,18.15"
                         i:knockout="Off" />
                      <path
                         inkscape:connector-curvature="0"
                         id="path4061"
                         d="m 426.932,744.727 c -9.865,0.923 -19.195,10.529 -24.314,18.443 -0.332,0.513 0.34,1.19 0.814,0.742 7.282,-6.883 13.182,-15.896 23.715,-17.963 0.795,-0.156 0.572,-1.297 -0.215,-1.222 l 0,0 z"
                         i:knockout="Off" />
                    </g>
                  </g>
                  <g
                     id="g4063"
                     i:knockout="Off">
                    <g
                       id="g4065">
                      <path
                         style="fill:none"
                         inkscape:connector-curvature="0"
                         id="path4067"
                         d="m 427.908,749.485 c -8.828,2.454 -16.09,14.315 -20.479,22.01"
                         i:knockout="Off" />
                      <path
                         inkscape:connector-curvature="0"
                         id="path4069"
                         d="m 427.801,748.874 c -9.565,2.557 -17.276,13.747 -20.892,22.429 -0.25,0.601 0.605,1.001 0.976,0.511 6.025,-7.987 10.223,-17.989 20.29,-21.768 0.653,-0.245 0.301,-1.353 -0.374,-1.172 l 0,0 z"
                         i:knockout="Off" />
                    </g>
                  </g>
                </g>
                <g
                   id="g4071">
                  <g
                     id="g4073"
                     i:knockout="Off">
                    <g
                       id="g4075">
                      <path
                         style="fill:none"
                         inkscape:connector-curvature="0"
                         id="path4077"
                         d="m 443.734,741.214 c 12.398,3.276 22.719,9.208 32.803,17.086"
                         i:knockout="Off" />
                      <path
                         inkscape:connector-curvature="0"
                         id="path4079"
                         d="m 443.47,741.93 c 12.25,3.709 22.133,9.898 32.696,16.899 0.714,0.473 1.349,-0.517 0.742,-1.059 -9.146,-8.169 -21.029,-14.317 -32.909,-17.272 -0.936,-0.233 -1.485,1.143 -0.529,1.432 l 0,0 z"
                         i:knockout="Off" />
                    </g>
                  </g>
                  <g
                     id="g4081"
                     i:knockout="Off">
                    <g
                       id="g4083">
                      <path
                         style="fill:none"
                         inkscape:connector-curvature="0"
                         id="path4085"
                         d="m 443.445,745.338 c 9.117,0.893 18.318,11.325 23.967,18.15"
                         i:knockout="Off" />
                      <path
                         inkscape:connector-curvature="0"
                         id="path4087"
                         d="m 443.387,745.956 c 10.465,2.051 16.37,11.05 23.602,17.892 0.526,0.497 1.236,-0.119 0.848,-0.719 -5.106,-7.878 -14.49,-17.489 -24.332,-18.409 -0.815,-0.076 -0.888,1.086 -0.118,1.236 l 0,0 z"
                         i:knockout="Off" />
                    </g>
                  </g>
                  <g
                     id="g4089"
                     i:knockout="Off">
                    <g
                       id="g4091">
                      <path
                         style="fill:none"
                         inkscape:connector-curvature="0"
                         id="path4093"
                         d="m 442.574,749.485 c 8.826,2.454 16.096,14.315 20.48,22.01"
                         i:knockout="Off" />
                      <path
                         inkscape:connector-curvature="0"
                         id="path4095"
                         d="m 442.358,750.067 c 10.052,3.775 14.26,13.81 20.272,21.787 0.395,0.522 1.158,-0.038 0.926,-0.598 -3.59,-8.625 -11.283,-19.818 -20.767,-22.354 -0.761,-0.203 -1.192,0.879 -0.431,1.165 l 0,0 z"
                         i:knockout="Off" />
                    </g>
                  </g>
                </g>
              </g>
              <g
                 id="g4097">
                <g
                   id="g4099">
                  <circle
                     d="m 418.21099,690.20203 c 0,1.93631 -1.56969,3.506 -3.506,3.506 -1.93631,0 -3.506,-1.56969 -3.506,-3.506 0,-1.93631 1.56969,-3.506 3.506,-3.506 1.93631,0 3.506,1.56969 3.506,3.506 z"
                     sodipodi:ry="3.506"
                     sodipodi:rx="3.506"
                     sodipodi:cy="690.20203"
                     sodipodi:cx="414.70499"
                     id="circle4101"
                     r="3.506"
                     cy="690.20203"
                     cx="414.70499"
                     i:knockout="Off" />
                  <circle
                     d="m 413.48301,698.62097 c 0,1.61323 -1.30777,2.921 -2.921,2.921 -1.61322,0 -2.921,-1.30777 -2.921,-2.921 0,-1.61322 1.30778,-2.921 2.921,-2.921 1.61323,0 2.921,1.30778 2.921,2.921 z"
                     sodipodi:ry="2.921"
                     sodipodi:rx="2.921"
                     sodipodi:cy="698.62097"
                     sodipodi:cx="410.56201"
                     id="circle4103"
                     r="2.921"
                     cy="698.62097"
                     cx="410.56201"
                     i:knockout="Off" />
                  <path
                     inkscape:connector-curvature="0"
                     id="path4105"
                     d="m 426.793,689.1 c -0.588,1.846 -1.811,3.105 -2.734,2.811 -0.922,-0.293 -1.195,-2.026 -0.605,-3.872 0.584,-1.845 1.809,-3.104 2.73,-2.81 0.921,0.292 1.195,2.028 0.609,3.871 z"
                     i:knockout="Off" />
                  <path
                     inkscape:connector-curvature="0"
                     id="path4107"
                     d="m 422.381,699.521 c 0,0.97 -0.914,1.754 -2.047,1.754 -1.129,0 -2.045,-0.784 -2.045,-1.754 0,-0.969 0.916,-1.752 2.045,-1.752 1.133,10e-4 2.047,0.784 2.047,1.752 z"
                     i:knockout="Off" />
                </g>
                <g
                   id="g4109">
                  <path
                     inkscape:connector-curvature="0"
                     id="path4111"
                     d="m 465.488,732.979 c -0.721,1.444 -0.135,3.196 1.311,3.917 1.443,0.722 3.197,0.135 3.918,-1.309 0.721,-1.445 0.131,-3.201 -1.311,-3.918 -1.443,-0.723 -3.197,-0.135 -3.918,1.31 z"
                     i:knockout="Off" />
                  <path
                     inkscape:connector-curvature="0"
                     id="path4113"
                     d="m 466.172,725.515 c -0.299,1.914 0.234,3.587 1.189,3.736 0.959,0.148 1.975,-1.28 2.275,-3.192 0.299,-1.914 -0.232,-3.586 -1.193,-3.734 -0.953,-0.151 -1.972,1.278 -2.271,3.19 z"
                     i:knockout="Off" />
                  <path
                     inkscape:connector-curvature="0"
                     id="path4115"
                     d="m 460.797,729.959 c -0.434,0.866 0.035,1.979 1.045,2.481 1.014,0.505 2.184,0.211 2.613,-0.655 0.434,-0.866 -0.037,-1.978 -1.045,-2.48 -1.012,-0.506 -2.183,-0.211 -2.613,0.654 z"
                     i:knockout="Off" />
                </g>
              </g>
            </g>
          </g>
        </g>
      </g>
      <path
         transform="matrix(0.72565801,0,0,0.54840239,-6.8484407,-30.677373)"
         d="m 548.57145,322.89789 c 0,11.73605 -14.63069,21.25 -32.67857,21.25 -18.04787,0 -32.67857,-9.51395 -32.67857,-21.25 0,-11.73605 14.6307,-21.25 32.67857,-21.25 18.04788,0 32.67857,9.51395 32.67857,21.25 z"
         sodipodi:ry="21.25"
         sodipodi:rx="32.67857"
         sodipodi:cy="322.89789"
         sodipodi:cx="515.89288"
         id="path4375"
         style="fill:url(#radialGradient4383);fill-opacity:1;stroke:none"
         sodipodi:type="arc" />
      <g
         transform="translate(237.5,-49.642858)"
         id="g4317">
        <path
           inkscape:connector-curvature="0"
           id="path4295"
           d="m 153.56522,184.23954 37.8125,-16.9375 -35.40625,-9.5625 -38.89864,10.10723 z"
           style="fill:#4d9b9f;fill-opacity:1;fill-rule:evenodd;stroke:#000000;stroke-opacity:1"
           sodipodi:nodetypes="ccccc" />
        <path
           inkscape:connector-curvature="0"
           id="path4297"
           d="m 153.56522,184.23954 -37.25,-14.625 -47.625,14.25 41.06837,15.08693 z"
           style="fill:#4d9b9f;fill-opacity:1;fill-rule:evenodd;stroke:#000000;stroke-opacity:1"
           sodipodi:nodetypes="ccccc" />
        <path
           inkscape:connector-curvature="0"
           id="path4299"
           d="m 196.62772,201.20829 43.28125,-20.78125 -48.27871,-14.64023 -38.06504,18.45273 z"
           style="fill:#4d9b9f;fill-opacity:1;fill-rule:evenodd;stroke:#000000;stroke-opacity:1"
           sodipodi:nodetypes="ccccc" />
        <path
           inkscape:connector-curvature="0"
           id="path4301"
           d="m 195.87011,198.43037 -42.30489,-14.19083 -41.28125,18.5 42.65625,18.46875 z"
           style="fill:#4d9b9f;fill-opacity:1;fill-rule:evenodd;stroke:#000000;stroke-opacity:1"
           sodipodi:nodetypes="ccccc" />
      </g>
      <path
         sodipodi:nodetypes="ccccc"
         style="fill:url(#linearGradient4445);fill-opacity:1;fill-rule:evenodd;stroke:none"
         d="m 434.39624,150.75939 42.74554,-20.06697 -47.92157,-13.92594 -37.52932,17.55987 z"
         id="path4407"
         inkscape:connector-curvature="0" />
      <path
         sodipodi:nodetypes="ccccc"
         style="fill:url(#linearGradient4437);fill-opacity:1;fill-rule:evenodd;stroke:none"
         d="m 391.26023,133.96534 34.83957,-16.65638 -32.20122,-9.46482 -38.82067,10.09429 z"
         id="path4403"
         inkscape:connector-curvature="0" />
      <path
         sodipodi:nodetypes="ccccc"
         style="fill:url(#linearGradient4421);fill-opacity:1;fill-rule:evenodd;stroke:none"
         d="m 389.54999,134.47229 -35.39947,-14.62688 -48.21284,14.14175 41.23945,14.56384 z"
         id="path4405"
         inkscape:connector-curvature="0" />
      <path
         sodipodi:nodetypes="ccccc"
         style="fill:url(#linearGradient4429);fill-opacity:1;fill-rule:evenodd;stroke:none"
         d="m 433.04611,148.38061 -42.82688,-13.9102 -40.18272,18.43628 43.17104,17.64858 z"
         id="path4409"
         inkscape:connector-curvature="0" />
    </g>
  </g>
</svg>
